<?xml version="1.0" encoding="UTF-8"?>
<svg xmlns="http://www.w3.org/2000/svg" viewBox="0 0 256 256" width="256" height="256">
  <!-- Hintergrund: abgerundetes Quadrat (App-Icon-Form) -->
  <rect width="256" height="256" rx="48" ry="48" fill="#1A2744"/>

  <!-- Äußerer Ring -->
  <circle cx="128" cy="108" r="72" fill="none" stroke="#2E86AB" stroke-width="8" opacity="0.4"/>

  <!-- Blitz (Strom) -->
  <polygon points="138,44 108,112 128,112 118,172 152,96 130,96"
           fill="#F4A261" stroke="#F4A261" stroke-linejoin="round"/>

  <!-- Wassertropfen (links unten) -->
  <path d="M72 178 Q72 158 88 148 Q104 158 104 178 Q104 196 88 196 Q72 196 72 178Z"
        fill="#457B9D" opacity="0.9"/>

  <!-- Flamme (rechts unten) -->
  <path d="M152 196 Q148 176 160 164 Q164 176 172 168
           Q176 184 168 196 Q160 204 152 196Z"
        fill="#52B788" opacity="0.9"/>
  <path d="M160 196 Q158 184 164 178 Q167 186 170 182
           Q172 190 167 196 Q163 200 160 196Z"
        fill="#95D5B2" opacity="0.8"/>

  <!-- Programm-Name -->
  <text x="128" y="232" font-family="'DejaVu Sans', Arial, sans-serif"
        font-size="20" font-weight="bold" fill="#A8DADC"
        text-anchor="middle" letter-spacing="1">VERBRAUCH</text>
</svg>
